<?xml version="1.0" encoding="UTF-8"?>
<svg xmlns="http://www.w3.org/2000/svg" xmlns:xlink="http://www.w3.org/1999/xlink" width="8604pt" height="2052pt" viewBox="0 0 8604 2052" version="1.1">
<g id="surface1">
<path style=" stroke:none;fill-rule:nonzero;fill:rgb(13.699341%,12.199402%,12.5%);fill-opacity:1;" d="M 4846.984375 675.3125 L 4846.984375 910.480469 L 4846.949219 910.476563 C 4846.960938 942.355469 4846.976563 975.351563 4846.976563 1009.507813 C 4846.976563 1028.914063 4832.34375 1046.324219 4809.167969 1058.191406 C 4802.585938 1061.5625 4795.292969 1064.46875 4787.46875 1066.859375 L 4625.28125 1109.476563 L 4625.28125 601.128906 C 4562.964844 601.128906 4512.445313 634.207031 4512.445313 675.015625 L 4512.445313 1296.988281 L 4625.28125 1296.988281 L 4625.28125 1122.632813 L 4806.246094 1075.089844 C 4807.222656 1075.554688 4808.21875 1076.003906 4809.167969 1076.488281 C 4832.34375 1088.359375 4846.976563 1105.769531 4846.976563 1125.175781 C 4846.976563 1159.335938 4846.960938 1192.332031 4846.929688 1224.214844 L 4846.984375 1224.199219 L 4846.984375 1294.460938 L 4959.824219 1294.460938 L 4959.824219 1144.183594 L 4959.730469 1144.183594 C 4959.28125 1111.84375 4917.84375 1083.480469 4855.578125 1067.34375 C 4918 1051.164063 4959.492188 1022.699219 4959.742188 990.261719 L 4959.824219 990.261719 L 4959.824219 601.429688 L 4959.820313 601.429688 C 4897.503906 601.429688 4846.984375 634.507813 4846.984375 675.3125 "/>
<path style=" stroke:none;fill-rule:nonzero;fill:rgb(13.699341%,12.199402%,12.5%);fill-opacity:1;" d="M 6696.867188 692.660156 C 6696.867188 642.109375 6596.683594 601.128906 6473.101563 601.128906 C 6349.679688 601.128906 6249.601563 642 6249.332031 692.457031 L 6249.328125 692.457031 L 6249.328125 1209.65625 L 6249.617188 1209.65625 C 6255.585938 1258.027344 6353.359375 1296.496094 6473.101563 1296.496094 C 6596.683594 1296.496094 6696.867188 1255.515625 6696.867188 1204.960938 C 6696.867188 1170.925781 6651.449219 1141.234375 6584.050781 1125.460938 C 6584.082031 1157.339844 6584.101563 1190.339844 6584.101563 1224.5 C 6584.101563 1260.261719 6534.402344 1289.257813 6473.101563 1289.257813 C 6411.796875 1289.257813 6362.097656 1260.261719 6362.097656 1224.5 L 6362.097656 1209.65625 L 6362.164063 1209.65625 L 6362.164063 692.457031 L 6362.097656 692.457031 L 6362.097656 673.125 C 6362.097656 637.359375 6411.796875 608.363281 6473.101563 608.363281 C 6534.402344 608.363281 6584.101563 637.359375 6584.101563 673.125 C 6584.101563 707.28125 6584.082031 740.28125 6584.050781 772.164063 C 6651.449219 756.394531 6696.867188 726.695313 6696.867188 692.660156 "/>
<path style=" stroke:none;fill-rule:nonzero;fill:rgb(13.699341%,12.199402%,12.5%);fill-opacity:1;" d="M 4252.09375 832.070313 L 4107.457031 794.066406 C 4072.160156 784.796875 4049.03125 762.40625 4049.019531 737.503906 C 4049.007813 714.863281 4049.003906 691.347656 4049.003906 691.347656 C 4048.996094 685.304688 4048.996094 679.242188 4048.996094 673.125 C 4048.996094 637.359375 4098.695313 608.367188 4159.996094 608.367188 C 4221.300781 608.367188 4271 637.359375 4271 673.125 C 4271 679.535156 4270.992188 685.90625 4270.992188 692.238281 L 4270.925781 692.238281 L 4270.925781 694.605469 C 4270.925781 735.402344 4321.4375 768.480469 4383.75 768.480469 L 4383.75 693.003906 L 4383.769531 692.660156 C 4383.769531 642.109375 4283.582031 601.128906 4159.996094 601.128906 C 4037.488281 601.128906 3937.988281 641.402344 3936.265625 691.347656 L 3936.226563 691.347656 L 3936.226563 712.515625 L 3936.234375 712.515625 C 3936.410156 746.085938 3980.773438 775.402344 4046.789063 791.273438 L 4046.816406 791.296875 L 4209.332031 833.996094 C 4245.898438 844.585938 4271.042969 866.582031 4271.042969 892.015625 C 4271.042969 926.175781 4271.03125 959.175781 4270.992188 991.054688 L 4271.054688 991.042969 L 4271.054688 1125.484375 C 4271.019531 1125.480469 4270.984375 1125.46875 4270.949219 1125.460938 C 4270.980469 1157.34375 4271 1190.34375 4271 1224.5 C 4271 1260.265625 4221.300781 1289.257813 4159.996094 1289.257813 C 4098.695313 1289.257813 4048.996094 1260.265625 4048.996094 1224.5 C 4048.996094 1217.824219 4048.996094 1211.210938 4049.003906 1204.625 L 4049.066406 1204.625 L 4049.066406 1080.292969 C 4049.070313 1080.007813 4049.097656 1079.726563 4049.097656 1079.4375 C 4049.097656 1045.410156 4003.695313 1015.726563 3936.324219 999.949219 C 3936.320313 1024.816406 3936.316406 1052.863281 3936.308594 1078.664063 L 3936.226563 1078.664063 L 3936.226563 1204.625 L 3936.242188 1204.625 C 3936.238281 1204.738281 3936.226563 1204.847656 3936.226563 1204.960938 C 3936.226563 1255.515625 4036.414063 1296.496094 4159.996094 1296.496094 C 4283.417969 1296.496094 4383.496094 1255.625 4383.765625 1205.164063 L 4383.890625 1205.164063 L 4383.890625 911.34375 L 4383.808594 911.34375 C 4383.65625 871.511719 4340.355469 853.851563 4252.09375 832.070313 "/>
<path style=" stroke:none;fill-rule:nonzero;fill:rgb(13.699341%,12.199402%,12.5%);fill-opacity:1;" d="M 5076.59375 675.015625 L 5076.59375 1296.988281 L 5189.433594 1296.988281 L 5189.433594 601.128906 C 5127.117188 601.128906 5076.59375 634.207031 5076.59375 675.015625 "/>
<path style=" stroke:none;fill-rule:nonzero;fill:rgb(13.699341%,12.199402%,12.5%);fill-opacity:1;" d="M 5559.808594 601.128906 C 5520.34375 601.128906 5483.421875 601.132813 5448.875 601.132813 L 5448.875 601.128906 L 5336.039063 601.128906 L 5336.039063 1296.988281 L 5448.875 1296.988281 L 5448.875 608.378906 C 5483.507813 608.367188 5520.429688 608.367188 5559.808594 608.367188 C 5621.113281 608.367188 5670.808594 637.359375 5670.808594 673.125 L 5670.808594 692.785156 L 5670.746094 692.785156 L 5670.746094 1296.988281 L 5783.582031 1296.988281 L 5783.582031 692.785156 L 5783.574219 692.785156 C 5783.574219 692.742188 5783.582031 692.703125 5783.582031 692.703125 C 5783.582031 642.109375 5683.398438 601.128906 5559.808594 601.128906 "/>
<path style=" stroke:none;fill-rule:nonzero;fill:rgb(13.699341%,12.199402%,12.5%);fill-opacity:1;" d="M 7116.554688 1053.117188 L 6895.117188 1111.300781 L 6895.117188 692.460938 L 6895.054688 692.460938 L 6895.054688 673.125 C 6895.054688 637.359375 6944.75 608.363281 7006.054688 608.363281 C 7067.359375 608.363281 7117.050781 637.359375 7117.050781 673.125 L 7117.050781 692.460938 L 7116.984375 692.460938 L 7116.984375 1053.824219 Z M 7006.054688 601.128906 C 6882.632813 601.128906 6782.554688 642 6782.289063 692.460938 L 6782.28125 692.460938 L 6782.28125 1296.496094 L 6895.117188 1296.496094 L 6895.117188 1124.460938 L 7116.984375 1066.164063 L 7116.984375 1296.496094 L 7229.824219 1296.496094 L 7229.824219 692.460938 L 7229.816406 692.460938 C 7229.550781 642 7129.476563 601.128906 7006.054688 601.128906 "/>
<path style=" stroke:none;fill-rule:nonzero;fill:rgb(13.699341%,12.199402%,12.5%);fill-opacity:1;" d="M 7471.039063 692.460938 L 7471.039063 673.121094 C 7471.039063 637.359375 7520.738281 608.363281 7582.042969 608.363281 C 7643.34375 608.363281 7693.039063 637.359375 7693.039063 673.121094 C 7693.039063 707.28125 7693.027344 740.277344 7692.992188 772.160156 C 7693.113281 772.132813 7693.234375 772.101563 7693.359375 772.074219 L 7693.359375 909.910156 C 7693.15625 909.863281 7692.957031 909.8125 7692.753906 909.765625 C 7692.789063 941.648438 7692.804688 974.648438 7692.804688 1008.804688 C 7692.804688 1028.210938 7678.171875 1045.621094 7654.992188 1057.488281 C 7648.609375 1060.761719 7641.546875 1063.582031 7633.992188 1065.9375 L 7471.105469 1108.730469 L 7471.105469 692.460938 Z M 7701.402344 1066.636719 C 7762.34375 1050.84375 7803.332031 1023.335938 7805.472656 991.859375 L 7806.195313 991.859375 L 7806.195313 692.246094 L 7805.796875 692.246094 C 7805.257813 641.886719 7705.289063 601.128906 7582.042969 601.128906 C 7458.621094 601.128906 7358.542969 642 7358.277344 692.460938 L 7358.269531 692.460938 L 7358.269531 1296.28125 L 7471.105469 1296.28125 L 7471.105469 1121.890625 L 7652.019531 1074.359375 C 7653.011719 1074.832031 7654.027344 1075.292969 7654.992188 1075.785156 C 7678.171875 1087.65625 7692.804688 1105.0625 7692.804688 1124.472656 C 7692.804688 1158.628906 7692.789063 1191.628906 7692.753906 1223.507813 C 7692.976563 1223.457031 7693.191406 1223.398438 7693.414063 1223.351563 L 7693.414063 1293.761719 L 7806.253906 1293.761719 L 7806.253906 1142.03125 L 7805.496094 1142.03125 C 7803.851563 1110.296875 7762.738281 1082.535156 7701.402344 1066.636719 "/>
<path style=" stroke:none;fill-rule:nonzero;fill:rgb(13.699341%,12.199402%,12.5%);fill-opacity:1;" d="M 8250.125 1123.128906 C 8250.15625 1155.011719 8250.171875 1188.007813 8250.171875 1222.167969 C 8250.171875 1257.933594 8200.472656 1286.925781 8139.171875 1286.925781 C 8099.769531 1286.925781 8062.820313 1286.921875 8028.171875 1286.914063 L 8028.171875 1122.007813 L 8212.484375 1073.582031 L 8205.539063 1062.25 L 8028.171875 1108.851563 L 8028.171875 608.378906 C 8062.808594 608.367188 8099.726563 608.367188 8139.105469 608.367188 C 8200.410156 608.367188 8250.109375 637.359375 8250.109375 673.125 C 8250.109375 707.28125 8250.089844 740.277344 8250.058594 772.160156 C 8317.453125 756.390625 8362.875 726.695313 8362.875 692.660156 C 8362.875 642.109375 8262.691406 601.128906 8139.105469 601.128906 C 8099.640625 601.128906 8062.722656 601.128906 8028.171875 601.128906 L 7915.335938 601.128906 L 7915.335938 1294.402344 L 8028.171875 1294.402344 L 8028.171875 1294.160156 L 8139.171875 1294.160156 C 8262.757813 1294.160156 8362.945313 1253.183594 8362.945313 1202.632813 C 8362.945313 1168.59375 8317.523438 1138.898438 8250.125 1123.128906 "/>
<path style="fill-rule:nonzero;fill:rgb(13.699341%,12.199402%,12.5%);fill-opacity:1;stroke-width:20.982;stroke-linecap:butt;stroke-linejoin:miter;stroke:rgb(13.699341%,12.199402%,12.5%);stroke-opacity:1;stroke-miterlimit:10;" d="M 0.0000125 -0.00100625 L -70.339831 -148.536163 L 69.968763 -148.536163 Z M 5.160169 87.170869 L 196.515638 -323.15335 L 152.207044 -323.15335 L 87.6797 -188.145538 L -89.074206 -188.145538 L -152.999987 -323.15335 L -198.746081 -323.15335 L -4.8828 87.170869 Z M 5.160169 87.170869 " transform="matrix(1,0,0,-1,4123.5703,1478.9404)"/>
<path style=" stroke:none;fill-rule:nonzero;fill:rgb(13.699341%,12.199402%,12.5%);fill-opacity:1;" d="M 5028.59375 1467.921875 L 4996.238281 1492.746094 C 4978.382813 1469.503906 4956.953125 1451.882813 4931.941406 1439.890625 C 4906.929688 1427.894531 4879.453125 1421.898438 4849.511719 1421.898438 C 4816.785156 1421.898438 4786.472656 1429.753906 4758.578125 1445.46875 C 4730.683594 1461.183594 4709.066406 1482.289063 4693.726563 1508.785156 C 4678.382813 1535.285156 4670.710938 1565.085938 4670.710938 1598.1875 C 4670.710938 1648.210938 4687.867188 1689.957031 4722.175781 1723.433594 C 4756.488281 1756.902344 4799.769531 1773.640625 4852.023438 1773.640625 C 4909.484375 1773.640625 4957.554688 1751.140625 4996.238281 1706.136719 L 5028.59375 1730.683594 C 5008.136719 1756.71875 4982.613281 1776.847656 4952.023438 1791.074219 C 4921.433594 1805.300781 4887.261719 1812.414063 4849.511719 1812.414063 C 4777.734375 1812.414063 4721.109375 1788.519531 4679.640625 1740.726563 C 4644.863281 1700.371094 4627.476563 1651.652344 4627.476563 1594.5625 C 4627.476563 1534.496094 4648.535156 1483.960938 4690.65625 1442.957031 C 4732.777344 1401.953125 4785.542969 1381.449219 4848.953125 1381.449219 C 4887.261719 1381.449219 4921.851563 1389.027344 4952.722656 1404.183594 C 4983.589844 1419.339844 5008.878906 1440.585938 5028.59375 1467.921875 "/>
<path style="fill:none;stroke-width:20.982;stroke-linecap:butt;stroke-linejoin:miter;stroke:rgb(13.699341%,12.199402%,12.5%);stroke-opacity:1;stroke-miterlimit:10;" d="M 0.00095 0.001025 L -32.354519 -24.823194 C -50.209988 -1.581006 -71.639675 16.040088 -96.651394 28.032275 C -121.663113 40.028369 -149.139675 46.024463 -179.081081 46.024463 C -211.807644 46.024463 -242.120144 38.168994 -270.014675 22.45415 C -297.909206 6.739306 -319.526394 -14.366162 -334.866238 -40.862256 C -350.209988 -67.362256 -357.881863 -97.163037 -357.881863 -130.2646 C -357.881863 -180.288037 -340.725613 -222.034131 -306.417019 -255.510694 C -272.104519 -288.979444 -228.823269 -305.717725 -176.569363 -305.717725 C -119.108425 -305.717725 -71.038113 -283.217725 -32.354519 -238.213819 L 0.00095 -262.760694 C -20.456081 -288.79585 -45.979519 -308.924756 -76.569363 -323.151319 C -107.159206 -337.377881 -141.331081 -344.491162 -179.081081 -344.491162 C -250.858425 -344.491162 -307.483425 -320.596631 -348.952175 -272.803662 C -383.729519 -232.448194 -401.116238 -183.729444 -401.116238 -126.6396 C -401.116238 -66.573194 -380.057644 -16.038037 -337.93655 24.965869 C -295.815456 65.969775 -243.049831 86.473681 -179.639675 86.473681 C -141.331081 86.473681 -106.741238 78.895556 -75.870144 63.739306 C -45.002956 48.583056 -19.713894 27.336963 0.00095 0.001025 Z M 0.00095 0.001025 " transform="matrix(1,0,0,-1,5028.5928,1467.9229)"/>
<path style="fill-rule:nonzero;fill:rgb(13.699341%,12.199402%,12.5%);fill-opacity:1;stroke-width:20.982;stroke-linecap:butt;stroke-linejoin:miter;stroke:rgb(13.699341%,12.199402%,12.5%);stroke-opacity:1;stroke-miterlimit:10;" d="M -0.000025 -0.00100625 L -70.339869 -148.536163 L 69.968725 -148.536163 Z M 5.160131 87.170869 L 196.5156 -323.15335 L 152.207006 -323.15335 L 87.679662 -188.145538 L -89.074244 -188.145538 L -153.000025 -323.15335 L -198.746119 -323.15335 L -4.882838 87.170869 Z M 5.160131 87.170869 " transform="matrix(1,0,0,-1,5536.1719,1478.9404)"/>
<path style="fill-rule:nonzero;fill:rgb(13.699341%,12.199402%,12.5%);fill-opacity:1;stroke-width:20.982;stroke-linecap:butt;stroke-linejoin:miter;stroke:rgb(13.699341%,12.199402%,12.5%);stroke-opacity:1;stroke-miterlimit:10;" d="M -0.001 -0.0000125 L 47.420875 -0.0000125 C 104.139625 -0.0000125 143.46775 3.531237 165.413062 10.60155 C 196.28025 20.617175 220.549781 38.679675 238.21775 64.808581 C 255.881812 90.910144 264.713844 122.828112 264.713844 160.531237 C 264.713844 200.117175 255.139625 233.937487 235.983375 261.972644 C 216.831031 290.027331 190.143531 309.273425 155.928687 319.66405 C 130.264625 327.47655 87.959937 331.3828 29.010719 331.3828 L -0.001 331.3828 Z M -39.329125 -38.77345 L -39.329125 371.550769 L 45.745094 371.550769 C 107.112281 371.550769 151.651344 366.621081 179.358375 356.765612 C 219.15525 342.816394 250.256812 318.644519 272.663062 284.238269 C 295.073219 249.839831 306.276344 208.832019 306.276344 161.22655 C 306.276344 120.128894 297.397437 83.960925 279.639625 52.718737 C 261.877906 21.480456 238.819312 -1.582044 210.459937 -16.457044 C 182.104469 -31.33595 142.354469 -38.77345 91.213844 -38.77345 Z M -39.329125 -38.77345 " transform="matrix(1,0,0,-1,6098.376,1763.3203)"/>
<path style="fill-rule:nonzero;fill:rgb(13.699341%,12.199402%,12.5%);fill-opacity:1;stroke-width:20.982;stroke-linecap:butt;stroke-linejoin:miter;stroke:rgb(13.699341%,12.199402%,12.5%);stroke-opacity:1;stroke-miterlimit:10;" d="M -0.00001875 -0.0019375 L 235.148419 -0.0019375 L 235.148419 -40.169906 L 41.003888 -40.169906 L 41.003888 -168.75975 L 233.472638 -168.75975 L 233.472638 -208.927719 L 41.003888 -208.927719 L 41.003888 -370.154281 L 233.472638 -370.154281 L 233.472638 -410.32225 L -0.00001875 -410.32225 Z M -0.00001875 -0.0019375 " transform="matrix(1,0,0,-1,6747.2383,1391.7715)"/>
<path style="fill-rule:nonzero;fill:rgb(13.699341%,12.199402%,12.5%);fill-opacity:1;stroke-width:20.982;stroke-linecap:butt;stroke-linejoin:miter;stroke:rgb(13.699341%,12.199402%,12.5%);stroke-opacity:1;stroke-miterlimit:10;" d="M -0.00100625 -0.00095 L 58.764619 410.319362 L 65.40915 410.319362 L 232.217744 73.639675 L 397.397431 410.319362 L 403.998994 410.319362 L 463.041962 -0.00095 L 422.827119 -0.00095 L 382.288056 293.444362 L 237.1904 -0.00095 L 226.729462 -0.00095 L 79.916962 295.678737 L 39.608369 -0.00095 Z M -0.00100625 -0.00095 " transform="matrix(1,0,0,-1,7297.3096,1802.0928)"/>
<path style="fill-rule:nonzero;fill:rgb(13.699341%,12.199402%,12.5%);fill-opacity:1;stroke-width:20.982;stroke-linecap:butt;stroke-linejoin:miter;stroke:rgb(13.699341%,12.199402%,12.5%);stroke-opacity:1;stroke-miterlimit:10;" d="M -0.0019375 -0.0019375 L 47.189469 -0.0019375 L 152.162125 -169.224594 L 255.509781 -0.0019375 L 302.92775 -0.0019375 L 172.943375 -214.2285 L 172.943375 -410.32225 L 132.494156 -410.32225 L 132.494156 -214.2285 Z M -0.0019375 -0.0019375 " transform="matrix(1,0,0,-1,8071.416,1391.7715)"/>
<path style=" stroke:none;fill-rule:nonzero;fill:rgb(13.699341%,12.199402%,12.5%);fill-opacity:1;" d="M 3992.667969 345.234375 L 4008.632813 345.234375 C 4021.1875 345.234375 4029.917969 344.339844 4034.824219 342.53125 C 4039.726563 340.734375 4043.582031 337.761719 4046.390625 333.636719 C 4049.203125 329.496094 4050.609375 324.488281 4050.609375 318.597656 C 4050.609375 308.402344 4046.660156 300.957031 4038.769531 296.277344 C 4033.027344 292.796875 4022.382813 291.0625 4006.835938 291.0625 L 3992.667969 291.0625 Z M 3942.4375 242.089844 L 3995.714844 242.089844 C 4024.539063 242.089844 4045.316406 244.75 4058.050781 250.070313 C 4070.789063 255.394531 4080.835938 264.003906 4088.191406 275.902344 C 4095.542969 287.800781 4099.222656 302.0625 4099.222656 318.6875 C 4099.222656 337.101563 4094.410156 352.410156 4084.78125 364.609375 C 4075.152344 376.808594 4062.089844 385.296875 4045.585938 390.082031 C 4035.898438 392.832031 4018.257813 394.207031 3992.667969 394.207031 L 3992.667969 505.964844 L 3942.4375 505.964844 Z M 3942.4375 242.089844 "/>
<path style=" stroke:none;fill-rule:nonzero;fill:rgb(13.699341%,12.199402%,12.5%);fill-opacity:1;" d="M 4370.992188 345.234375 L 4386.71875 345.234375 C 4402.710938 345.234375 4413.714844 343.140625 4419.722656 338.941406 C 4425.734375 334.742188 4428.753906 327.777344 4428.753906 318.058594 C 4428.753906 312.304688 4427.257813 307.296875 4424.269531 303.035156 C 4421.308594 298.773438 4417.304688 295.710938 4412.308594 293.855469 C 4407.285156 291.988281 4398.109375 291.0625 4384.773438 291.0625 L 4370.992188 291.0625 Z M 4320.761719 242.089844 L 4373.980469 242.089844 C 4403.132813 242.089844 4423.878906 244.691406 4436.226563 249.890625 C 4448.605469 255.09375 4458.558594 263.734375 4466.066406 275.8125 C 4473.597656 287.890625 4477.367188 302.183594 4477.367188 318.6875 C 4477.367188 336.027344 4473.210938 350.527344 4464.898438 362.1875 C 4456.589844 373.847656 4444.058594 382.667969 4427.316406 388.648438 L 4489.835938 505.964844 L 4434.914063 505.964844 L 4375.59375 394.207031 L 4370.992188 394.207031 L 4370.992188 505.964844 L 4320.761719 505.964844 Z M 4320.761719 242.089844 "/>
<path style=" stroke:none;fill-rule:nonzero;fill:rgb(13.699341%,12.199402%,12.5%);fill-opacity:1;" d="M 4823.523438 284.601563 C 4799.09375 284.601563 4778.554688 293.09375 4761.933594 310.074219 C 4745.28125 327.058594 4736.96875 348.644531 4736.96875 374.835938 C 4736.96875 404.015625 4747.429688 427.09375 4768.390625 444.078125 C 4784.683594 457.351563 4803.339844 463.988281 4824.417969 463.988281 C 4848.246094 463.988281 4868.515625 455.378906 4885.289063 438.15625 C 4902.0625 420.9375 4910.433594 399.710938 4910.433594 374.476563 C 4910.433594 349.359375 4902.003906 328.105469 4885.109375 310.703125 C 4868.21875 293.304688 4847.707031 284.601563 4823.523438 284.601563 M 4824.058594 235.453125 C 4861.402344 235.453125 4893.480469 248.964844 4920.359375 275.992188 C 4947.238281 303.019531 4960.660156 335.96875 4960.660156 374.835938 C 4960.660156 413.34375 4947.417969 445.929688 4920.898438 472.597656 C 4894.378906 499.269531 4862.238281 512.601563 4824.417969 512.601563 C 4784.804688 512.601563 4751.886719 498.910156 4725.695313 471.523438 C 4699.476563 444.136719 4686.378906 411.609375 4686.378906 373.9375 C 4686.378906 348.703125 4692.480469 325.503906 4704.675781 304.335938 C 4716.90625 283.167969 4733.679688 266.394531 4755.027344 254.019531 C 4776.402344 241.640625 4799.394531 235.453125 4824.058594 235.453125 "/>
<path style=" stroke:none;fill-rule:nonzero;fill:rgb(13.699341%,12.199402%,12.5%);fill-opacity:1;" d="M 5177.71875 242.089844 L 5308.667969 242.089844 L 5308.667969 291.0625 L 5227.585938 291.0625 L 5227.585938 338.957031 L 5308.667969 338.957031 L 5308.667969 387.210938 L 5227.585938 387.210938 L 5227.585938 505.964844 L 5177.71875 505.964844 Z M 5177.71875 242.089844 "/>
<path style=" stroke:none;fill-rule:nonzero;fill:rgb(13.699341%,12.199402%,12.5%);fill-opacity:1;" d="M 5522.527344 242.089844 L 5666.574219 242.089844 L 5666.574219 291.238281 L 5572.394531 291.238281 L 5572.394531 338.957031 L 5666.574219 338.957031 L 5666.574219 387.210938 L 5572.394531 387.210938 L 5572.394531 456.632813 L 5666.574219 456.632813 L 5666.574219 505.964844 L 5522.527344 505.964844 Z M 5522.527344 242.089844 "/>
<path style=" stroke:none;fill-rule:nonzero;fill:rgb(13.699341%,12.199402%,12.5%);fill-opacity:1;" d="M 6020.859375 277.964844 L 5983.667969 310.792969 C 5970.601563 292.617188 5957.296875 283.527344 5943.753906 283.527344 C 5937.175781 283.527344 5931.796875 285.289063 5927.582031 288.820313 C 5923.394531 292.347656 5921.300781 296.324219 5921.300781 300.746094 C 5921.300781 305.171875 5922.796875 309.359375 5925.785156 313.304688 C 5929.851563 318.566406 5942.140625 329.867188 5962.621094 347.207031 C 5981.785156 363.234375 5993.414063 373.339844 5997.480469 377.523438 C 6007.675781 387.808594 6014.882813 397.644531 6019.15625 407.035156 C 6023.402344 416.421875 6025.523438 426.675781 6025.523438 437.796875 C 6025.523438 459.445313 6018.050781 477.324219 6003.074219 491.433594 C 5988.125 505.546875 5968.597656 512.601563 5944.53125 512.601563 C 5925.726563 512.601563 5909.375 507.996094 5895.410156 498.789063 C 5881.476563 489.582031 5869.519531 475.109375 5859.59375 455.378906 L 5901.808594 429.90625 C 5914.515625 453.226563 5929.132813 464.886719 5945.636719 464.886719 C 5954.28125 464.886719 5961.515625 462.375 5967.40625 457.351563 C 5973.261719 452.328125 5976.195313 446.527344 5976.195313 439.949219 C 5976.195313 433.972656 5973.980469 427.992188 5969.554688 422.011719 C 5965.101563 416.03125 5955.355469 406.882813 5940.257813 394.566406 C 5911.496094 371.125 5892.929688 353.039063 5884.558594 340.300781 C 5876.15625 327.566406 5871.96875 314.859375 5871.96875 302.183594 C 5871.96875 283.886719 5878.9375 268.191406 5892.898438 255.09375 C 5906.832031 242 5924.050781 235.453125 5944.53125 235.453125 C 5957.6875 235.453125 5970.246094 238.5 5982.144531 244.601563 C 5994.074219 250.699219 6006.960938 261.820313 6020.859375 277.964844 "/>
<path style=" stroke:none;fill-rule:nonzero;fill:rgb(13.699341%,12.199402%,12.5%);fill-opacity:1;" d="M 6380.917969 277.964844 L 6343.726563 310.792969 C 6330.660156 292.617188 6317.355469 283.527344 6303.8125 283.527344 C 6297.234375 283.527344 6291.855469 285.289063 6287.636719 288.820313 C 6283.453125 292.347656 6281.359375 296.324219 6281.359375 300.746094 C 6281.359375 305.171875 6282.855469 309.359375 6285.84375 313.304688 C 6289.910156 318.566406 6302.195313 329.867188 6322.679688 347.207031 C 6341.84375 363.234375 6353.472656 373.339844 6357.539063 377.523438 C 6367.734375 387.808594 6374.9375 397.644531 6379.214844 407.035156 C 6383.460938 416.421875 6385.582031 426.675781 6385.582031 437.796875 C 6385.582031 459.445313 6378.105469 477.324219 6363.128906 491.433594 C 6348.179688 505.546875 6328.65625 512.601563 6304.589844 512.601563 C 6285.785156 512.601563 6269.429688 507.996094 6255.46875 498.789063 C 6241.535156 489.582031 6229.574219 475.109375 6219.648438 455.378906 L 6261.867188 429.90625 C 6274.570313 453.226563 6289.191406 464.886719 6305.695313 464.886719 C 6314.335938 464.886719 6321.570313 462.375 6327.460938 457.351563 C 6333.320313 452.328125 6336.25 446.527344 6336.25 439.949219 C 6336.25 433.972656 6334.039063 427.992188 6329.613281 422.011719 C 6325.160156 416.03125 6315.410156 406.882813 6300.3125 394.566406 C 6271.554688 371.125 6252.984375 353.039063 6244.613281 340.300781 C 6236.214844 327.566406 6232.027344 314.859375 6232.027344 302.183594 C 6232.027344 283.886719 6238.992188 268.191406 6252.957031 255.09375 C 6266.890625 242 6284.109375 235.453125 6304.589844 235.453125 C 6317.742188 235.453125 6330.300781 238.5 6342.199219 244.601563 C 6354.128906 250.699219 6367.015625 261.820313 6380.917969 277.964844 "/>
<path style=" stroke:none;fill-rule:nonzero;fill:rgb(13.699341%,12.199402%,12.5%);fill-opacity:1;" d="M 6598.871094 242.089844 L 6648.742188 242.089844 L 6648.742188 505.964844 L 6598.871094 505.964844 Z M 6598.871094 242.089844 "/>
<path style=" stroke:none;fill-rule:nonzero;fill:rgb(13.699341%,12.199402%,12.5%);fill-opacity:1;" d="M 6998.304688 284.601563 C 6973.878906 284.601563 6953.335938 293.09375 6936.714844 310.074219 C 6920.0625 327.058594 6911.75 348.644531 6911.75 374.835938 C 6911.75 404.015625 6922.214844 427.09375 6943.171875 444.078125 C 6959.464844 457.351563 6978.121094 463.988281 6999.199219 463.988281 C 7023.03125 463.988281 7043.300781 455.378906 7060.074219 438.15625 C 7076.84375 420.9375 7085.214844 399.710938 7085.214844 374.476563 C 7085.214844 349.359375 7076.785156 328.105469 7059.894531 310.703125 C 7043 293.304688 7022.492188 284.601563 6998.304688 284.601563 M 6998.839844 235.453125 C 7036.183594 235.453125 7068.265625 248.964844 7095.144531 275.992188 C 7122.019531 303.019531 7135.445313 335.96875 7135.445313 374.835938 C 7135.445313 413.34375 7122.199219 445.929688 7095.679688 472.597656 C 7069.160156 499.269531 7037.023438 512.601563 6999.199219 512.601563 C 6959.585938 512.601563 6926.667969 498.910156 6900.480469 471.523438 C 6874.257813 444.136719 6861.164063 411.609375 6861.164063 373.9375 C 6861.164063 348.703125 6867.261719 325.503906 6879.460938 304.335938 C 6891.6875 283.167969 6908.460938 266.394531 6929.808594 254.019531 C 6951.1875 241.640625 6974.175781 235.453125 6998.839844 235.453125 "/>
<path style=" stroke:none;fill-rule:nonzero;fill:rgb(13.699341%,12.199402%,12.5%);fill-opacity:1;" d="M 7351.964844 242.089844 L 7400.15625 242.089844 L 7513.050781 415.734375 L 7513.050781 242.089844 L 7563.277344 242.089844 L 7563.277344 505.964844 L 7514.964844 505.964844 L 7402.191406 332.859375 L 7402.191406 505.964844 L 7351.964844 505.964844 Z M 7351.964844 242.089844 "/>
<path style=" stroke:none;fill-rule:nonzero;fill:rgb(13.699341%,12.199402%,12.5%);fill-opacity:1;" d="M 7898.847656 312.050781 L 7863.453125 402.636719 L 7934.039063 402.636719 Z M 7873.078125 242.089844 L 7923.996094 242.089844 L 8025.496094 505.964844 L 7973.292969 505.964844 L 7952.636719 451.609375 L 7844.972656 451.609375 L 7823.507813 505.964844 L 7771.304688 505.964844 Z M 7873.078125 242.089844 "/>
<path style=" stroke:none;fill-rule:nonzero;fill:rgb(13.699341%,12.199402%,12.5%);fill-opacity:1;" d="M 8233.316406 242.089844 L 8283.542969 242.089844 L 8283.542969 458.070313 L 8356.734375 458.070313 L 8356.734375 505.964844 L 8233.316406 505.964844 Z M 8233.316406 242.089844 "/>
<path style=" stroke:none;fill-rule:nonzero;fill:rgb(13.699341%,12.199402%,12.5%);fill-opacity:1;" d="M 1792.265625 460.308594 C 1792.265625 425.746094 1852.644531 397.742188 1927.128906 397.742188 C 2001.613281 397.742188 2061.988281 425.746094 2061.988281 460.308594 C 2061.988281 494.867188 2001.613281 522.875 1927.128906 522.875 C 1852.644531 522.875 1792.265625 494.867188 1792.265625 460.308594 M 2651.351563 465.789063 L 2651.351563 454.828125 C 2261.765625 454.828125 2236.789063 240.71875 1927.128906 240.71875 C 1617.46875 240.71875 1517.574219 454.828125 1202.90625 454.828125 L 1202.90625 465.789063 C 1592.488281 465.789063 1617.46875 679.898438 1927.128906 679.898438 C 2236.820313 679.898438 2336.6875 465.789063 2651.351563 465.789063 "/>
<path style=" stroke:none;fill-rule:nonzero;fill:rgb(13.699341%,12.199402%,12.5%);fill-opacity:1;" d="M 2989.789063 1306.75 C 2989.789063 1341.3125 2929.402344 1369.320313 2854.929688 1369.320313 C 2780.441406 1369.320313 2720.066406 1341.3125 2720.066406 1306.75 C 2720.066406 1272.21875 2780.441406 1244.1875 2854.929688 1244.1875 C 2929.402344 1244.1875 2989.789063 1272.21875 2989.789063 1306.75 M 2130.703125 1301.300781 L 2130.703125 1312.234375 C 2520.289063 1312.234375 2545.265625 1526.34375 2854.929688 1526.34375 C 3164.617188 1526.34375 3264.484375 1312.234375 3579.148438 1312.234375 L 3579.148438 1301.300781 C 3189.5625 1301.300781 3164.589844 1087.160156 2854.929688 1087.160156 C 2545.265625 1087.160156 2445.371094 1301.300781 2130.703125 1301.300781 "/>
<path style=" stroke:none;fill-rule:nonzero;fill:rgb(13.699341%,12.199402%,12.5%);fill-opacity:1;" d="M 1927.128906 1651.476563 C 1852.644531 1651.476563 1792.265625 1623.46875 1792.265625 1588.910156 C 1792.265625 1554.347656 1852.644531 1526.339844 1927.128906 1526.339844 C 2001.613281 1526.339844 2061.988281 1554.347656 2061.988281 1588.910156 C 2061.988281 1623.46875 2001.613281 1651.476563 1927.128906 1651.476563 M 2651.351563 1583.429688 C 2261.765625 1583.429688 2236.789063 1369.320313 1927.128906 1369.320313 C 1617.46875 1369.320313 1517.574219 1583.429688 1202.90625 1583.429688 L 1202.90625 1594.386719 C 1592.488281 1594.386719 1617.46875 1808.5 1927.128906 1808.5 C 2236.820313 1808.5 2336.6875 1594.386719 2651.351563 1594.386719 Z M 2651.351563 1583.429688 "/>
<path style=" stroke:none;fill-rule:nonzero;fill:rgb(11.399841%,89.399719%,87.5%);fill-opacity:1;" d="M 2854.925781 805.03125 C 2780.441406 805.03125 2720.066406 777.027344 2720.066406 742.464844 C 2720.066406 707.90625 2780.441406 679.898438 2854.925781 679.898438 C 2929.40625 679.898438 2989.789063 707.90625 2989.789063 742.464844 C 2989.789063 777.027344 2929.40625 805.03125 2854.925781 805.03125 M 2854.925781 522.875 C 2545.265625 522.875 2445.371094 736.988281 2130.703125 736.988281 L 2130.703125 747.945313 C 2520.289063 747.945313 2545.265625 962.054688 2854.925781 962.054688 C 3164.617188 962.054688 3264.484375 747.945313 3579.152344 747.945313 L 3579.152344 736.988281 C 3189.566406 736.988281 3164.589844 522.875 2854.925781 522.875 "/>
<path style=" stroke:none;fill-rule:nonzero;fill:rgb(0%,0%,0%);fill-opacity:1;" d="M 2854.925781 681.398438 C 2781.390625 681.398438 2721.566406 708.792969 2721.566406 742.464844 C 2721.566406 776.136719 2781.390625 803.53125 2854.925781 803.53125 C 2928.464844 803.53125 2988.289063 776.136719 2988.289063 742.464844 C 2988.289063 708.792969 2928.464844 681.398438 2854.925781 681.398438 M 2854.925781 806.53125 C 2818.6875 806.53125 2784.597656 799.976563 2758.933594 788.070313 C 2732.902344 775.992188 2718.566406 759.796875 2718.566406 742.464844 C 2718.566406 725.132813 2732.902344 708.9375 2758.933594 696.859375 C 2784.597656 684.953125 2818.6875 678.398438 2854.925781 678.398438 C 2891.164063 678.398438 2925.253906 684.953125 2950.917969 696.859375 C 2976.953125 708.9375 2991.289063 725.132813 2991.289063 742.464844 C 2991.289063 759.796875 2976.953125 775.992188 2950.917969 788.070313 C 2925.253906 799.976563 2891.164063 806.53125 2854.925781 806.53125 M 2132.203125 746.445313 C 2223.910156 746.578125 2303.574219 758.703125 2375.699219 783.5 C 2439.855469 805.558594 2490.542969 834.707031 2539.5625 862.898438 C 2626.890625 913.121094 2709.375 960.554688 2854.925781 960.554688 C 2923.957031 960.554688 2988.84375 949.71875 3053.304688 927.421875 C 3110.851563 907.519531 3162.90625 880.46875 3213.25 854.308594 C 3314.976563 801.449219 3420.160156 746.792969 3577.652344 746.445313 L 3577.652344 738.484375 C 3485.945313 738.355469 3406.28125 726.230469 3334.15625 701.433594 C 3270 679.375 3219.3125 650.222656 3170.292969 622.035156 C 3082.964844 571.8125 3000.480469 524.375 2854.925781 524.375 C 2785.90625 524.375 2721.023438 535.214844 2656.566406 557.507813 C 2599.023438 577.410156 2546.964844 604.460938 2496.625 630.617188 C 2394.890625 683.480469 2289.699219 738.136719 2132.203125 738.484375 Z M 2854.925781 963.554688 C 2708.574219 963.554688 2625.75 915.925781 2538.066406 865.5 C 2489.167969 837.378906 2438.609375 808.300781 2374.722656 786.335938 C 2302.523438 761.511719 2222.703125 749.445313 2130.703125 749.445313 L 2129.203125 749.445313 L 2129.203125 735.488281 L 2130.703125 735.488281 C 2201.386719 735.488281 2267.648438 724.492188 2333.28125 701.871094 C 2391.8125 681.703125 2444.390625 654.378906 2495.242188 627.957031 C 2545.675781 601.75 2597.832031 574.648438 2655.585938 554.671875 C 2720.363281 532.265625 2785.570313 521.375 2854.925781 521.375 C 3001.28125 521.375 3084.105469 569.007813 3171.789063 619.433594 C 3220.683594 647.554688 3271.246094 676.628906 3335.132813 698.59375 C 3407.332031 723.417969 3487.148438 735.488281 3579.152344 735.488281 L 3580.652344 735.488281 L 3580.652344 749.445313 L 3579.152344 749.445313 C 3508.46875 749.445313 3442.210938 760.441406 3376.582031 783.058594 C 3318.054688 803.226563 3265.480469 830.550781 3214.632813 856.972656 C 3164.195313 883.179688 3112.039063 910.28125 3054.285156 930.257813 C 2989.503906 952.664063 2924.292969 963.554688 2854.925781 963.554688 "/>
<path style=" stroke:none;fill-rule:nonzero;fill:rgb(13.699341%,12.199402%,12.5%);fill-opacity:1;" d="M 1927.128906 1087.160156 C 1852.644531 1087.160156 1792.265625 1059.15625 1792.265625 1024.621094 C 1792.265625 990.0625 1852.644531 962.054688 1927.128906 962.054688 C 2001.613281 962.054688 2061.988281 990.0625 2061.988281 1024.621094 C 2061.988281 1059.15625 2001.613281 1087.160156 1927.128906 1087.160156 M 2651.351563 1019.140625 C 2261.765625 1019.140625 2236.789063 805.03125 1927.128906 805.03125 C 1617.46875 805.03125 1517.574219 1019.140625 1202.90625 1019.140625 L 1202.90625 1030.074219 C 1592.488281 1030.074219 1617.46875 1244.183594 1927.128906 1244.183594 C 2236.820313 1244.183594 2336.6875 1030.074219 2651.351563 1030.074219 Z M 2651.351563 1019.140625 "/>
<path style=" stroke:none;fill-rule:nonzero;fill:rgb(11.399841%,89.399719%,87.5%);fill-opacity:1;" d="M 863.359375 1306.75 C 863.359375 1272.21875 923.738281 1244.1875 998.214844 1244.1875 C 1072.699219 1244.1875 1133.082031 1272.21875 1133.082031 1306.75 C 1133.082031 1341.3125 1072.699219 1369.320313 998.214844 1369.320313 C 923.738281 1369.320313 863.359375 1341.3125 863.359375 1306.75 M 1722.445313 1312.234375 L 1722.445313 1301.300781 C 1332.859375 1301.300781 1307.875 1087.160156 998.214844 1087.160156 C 688.5625 1087.160156 588.667969 1301.300781 274 1301.300781 L 274 1312.234375 C 663.582031 1312.234375 688.5625 1526.34375 998.214844 1526.34375 C 1307.910156 1526.34375 1407.777344 1312.234375 1722.445313 1312.234375 "/>
<path style=" stroke:none;fill-rule:nonzero;fill:rgb(0%,0%,0%);fill-opacity:1;" d="M 998.214844 1245.683594 C 924.683594 1245.683594 864.859375 1273.078125 864.859375 1306.75 C 864.859375 1340.421875 924.683594 1367.820313 998.214844 1367.820313 C 1071.753906 1367.820313 1131.582031 1340.421875 1131.582031 1306.75 C 1131.582031 1273.078125 1071.753906 1245.683594 998.214844 1245.683594 M 998.214844 1370.820313 C 961.980469 1370.820313 927.890625 1364.261719 902.226563 1352.355469 C 876.195313 1340.28125 861.859375 1324.082031 861.859375 1306.75 C 861.859375 1289.429688 876.195313 1273.238281 902.226563 1261.160156 C 927.894531 1249.246094 961.984375 1242.683594 998.214844 1242.683594 C 1034.449219 1242.683594 1068.539063 1249.246094 1094.210938 1261.160156 C 1120.246094 1273.238281 1134.582031 1289.429688 1134.582031 1306.75 C 1134.582031 1324.082031 1120.246094 1340.28125 1094.210938 1352.355469 C 1068.546875 1364.261719 1034.453125 1370.820313 998.214844 1370.820313 M 275.5 1310.734375 C 367.203125 1310.867188 446.871094 1322.988281 518.992188 1347.789063 C 583.152344 1369.84375 633.839844 1398.996094 682.855469 1427.183594 C 770.183594 1477.40625 852.667969 1524.839844 998.214844 1524.839844 C 1067.242188 1524.839844 1132.136719 1514.003906 1196.597656 1491.707031 C 1254.144531 1471.804688 1306.199219 1444.753906 1356.542969 1418.59375 C 1458.269531 1365.734375 1563.453125 1311.082031 1720.945313 1310.734375 L 1720.945313 1302.800781 C 1629.238281 1302.667969 1549.574219 1290.542969 1477.449219 1265.742188 C 1413.292969 1243.679688 1362.601563 1214.527344 1313.585938 1186.332031 C 1226.253906 1136.105469 1143.765625 1088.660156 998.214844 1088.660156 C 929.195313 1088.660156 864.3125 1099.5 799.859375 1121.796875 C 742.316406 1141.703125 690.261719 1168.753906 639.921875 1194.917969 C 538.1875 1247.789063 432.996094 1302.453125 275.5 1302.796875 Z M 998.214844 1527.839844 C 851.867188 1527.839844 769.046875 1480.210938 681.359375 1429.785156 C 632.464844 1401.664063 581.902344 1372.589844 518.019531 1350.625 C 445.820313 1325.800781 366 1313.734375 274 1313.734375 L 272.5 1313.734375 L 272.5 1299.800781 L 274 1299.800781 C 344.679688 1299.800781 410.945313 1288.804688 476.578125 1266.179688 C 535.105469 1246.007813 587.6875 1218.679688 638.535156 1192.253906 C 688.972656 1166.042969 741.128906 1138.9375 798.878906 1118.960938 C 863.652344 1096.554688 928.855469 1085.660156 998.214844 1085.660156 C 1144.570313 1085.660156 1227.390625 1133.296875 1315.078125 1183.734375 C 1363.976563 1211.855469 1414.539063 1240.9375 1478.425781 1262.90625 C 1550.625 1287.734375 1630.445313 1299.800781 1722.445313 1299.800781 L 1723.945313 1299.800781 L 1723.945313 1313.734375 L 1722.445313 1313.734375 C 1651.761719 1313.734375 1585.503906 1324.726563 1519.875 1347.34375 C 1461.347656 1367.515625 1408.769531 1394.835938 1357.925781 1421.257813 C 1307.488281 1447.464844 1255.332031 1474.570313 1197.578125 1494.542969 C 1132.796875 1516.949219 1067.582031 1527.839844 998.214844 1527.839844 "/>
<path style=" stroke:none;fill-rule:nonzero;fill:rgb(13.699341%,12.199402%,12.5%);fill-opacity:1;" d="M 863.359375 742.464844 C 863.359375 707.90625 923.738281 679.898438 998.214844 679.898438 C 1072.699219 679.898438 1133.082031 707.90625 1133.082031 742.464844 C 1133.082031 777.027344 1072.699219 805.03125 998.214844 805.03125 C 923.738281 805.03125 863.359375 777.027344 863.359375 742.464844 M 1722.445313 747.945313 L 1722.445313 736.988281 C 1332.859375 736.988281 1307.875 522.875 998.214844 522.875 C 688.5625 522.875 588.667969 736.988281 274 736.988281 L 274 747.945313 C 663.582031 747.945313 688.5625 962.054688 998.214844 962.054688 C 1307.910156 962.054688 1407.777344 747.945313 1722.445313 747.945313 "/>
</g>
</svg>
